<?xml version="1.0"?>
<svg xmlns="http://www.w3.org/2000/svg" height="512px" viewBox="0 0 512 512" width="512px" class=""><g><path d="m226.625 76.277344c11.640625-28.105469-1.753906-60.4375-29.855469-72.078125-28.105469-11.640625-60.4375 1.753906-72.078125 29.855469l-40.011718 96.601562h119.421874zm0 0" data-original="#000000" class="active-path" data-old_color="#000000" fill="#FFFFFF"/><path d="m307.898438 130.65625h119.425781l-40.015625-96.601562c-11.640625-28.101563-43.976563-41.492188-72.078125-29.855469-13.613281 5.640625-24.21875 16.242187-29.855469 29.855469-5.640625 13.613281-5.640625 28.609374.003906 42.222656zm0 0" data-original="#000000" class="active-path" data-old_color="#000000" fill="#FFFFFF"/><path d="m249.082031 270.992188c30.378907-36.632813 76.21875-60 127.417969-60 44.945312 0 85.761719 18.019531 115.613281 47.203124 12.144531-10.128906 19.886719-25.359374 19.886719-42.371093 0-30.417969-24.75-55.167969-55.167969-55.167969h-401.664062c-30.421875 0-55.167969 24.75-55.167969 55.167969s24.746094 55.167969 55.167969 55.167969zm0 0" data-original="#000000" class="active-path" data-old_color="#000000" fill="#FFFFFF"/><path d="m376.5 240.992188c-74.714844 0-135.5 60.785156-135.5 135.5 0 74.714843 60.785156 135.5 135.5 135.5s135.5-60.785157 135.5-135.5c0-74.714844-60.785156-135.5-135.5-135.5zm40.164062 150.5h-25.164062v25.164062c0 8.285156-6.71875 15-15 15-8.285156 0-15-6.714844-15-15v-25.164062h-25.167969c-8.285156 0-15-6.71875-15-15 0-8.285157 6.714844-15 15-15h25.167969v-25.167969c0-8.285157 6.714844-15 15-15 8.28125 0 15 6.714843 15 15v25.167969h25.164062c8.285157 0 15 6.714843 15 15 0 8.28125-6.714843 15-15 15zm0 0" data-original="#000000" class="active-path" data-old_color="#000000" fill="#FFFFFF"/><path d="m211 376.492188c0-27.183594 6.585938-52.851563 18.246094-75.5h-174.078125c-3.109375 0-6.179688-.179688-9.199219-.507813l21.15625 158.675781c1.890625 14.195313 9.183594 27.484375 20.535156 37.421875 11.351563 9.9375 25.484375 15.410157 39.808594 15.410157h154.117188c-42.652344-29.964844-70.585938-79.53125-70.585938-135.5zm0 0" data-original="#000000" class="active-path" data-old_color="#000000" fill="#FFFFFF"/></g> </svg>
